<?xml version="1.0" encoding="utf-8"?>
<?xml-stylesheet type="text/xsl" href="rss1.xsl"?>
<rss version="2.0" xmlns:atom="http://www.w3.org/2005/Atom" xmlns:content="http://purl.org/rss/1.0/modules/content/" xmlns:dc="http://purl.org/dc/elements/1.1/" xmlns:media="http://search.yahoo.com/mrss/">
<channel>
 <title>Getty</title>
 <link>http://www.gettyimg.com/</link>
 <atom:link href="http://www.gettyimg.com/" rel="self" type="application/rss+xml" />

 
                <item>
                <title><![CDATA[【HD Live Performances】WEB-RiP - Foster The People - Austin City Limits 2014]]></title>
                <link><![CDATA[https://sharemania.us/threads/foster-the-people-austin-city-limits-2014.226395/]]></link>
                <description><![CDATA[<article>
<blockquote class="messageText SelectQuoteContainer ugc baseHtml">
Foster The People<br>
Austin City Limits Festival<br>
Zilker Park, Austin, TX, USA<br>
October 10th, 2014<br>
<img src="https://i.imgur.com/fr4qyCc.jpg" class="bbCodeImage LbImage" alt="[​IMG]" data-url="https://i.imgur.com/fr4qyCc.jpg" style=""><br>
<img src="https://i.imgur.com/6yISiJW.jpg" class="bbCodeImage LbImage" alt="[​IMG]" data-url="https://i.imgur.com/6yISiJW.jpg" style=""><br>
<img src="https://i.imgur.com/Bba7188.jpg" class="bbCodeImage LbImage" alt="[​IMG]" data-url="https://i.imgur.com/Bba7188.jpg" style=""><br>
<img src="https://i.imgur.com/y2kZ8PT.jpg" class="bbCodeImage LbImage" alt="[​IMG]" data-url="https://i.imgur.com/y2kZ8PT.jpg" style=""><br>
<br>
Setlist:<br>
<br>
01. Are You What You Want to Be?<br>
02. Call It What You Want<br>
03. Waste<br>
04. Coming of Age<br>
05. Life on the Nickel<br>
06. Pseudologia Fantastica<br>
07. Helena Beat<br>
08. Best Friend<br>
09. Miss You<br>
10. Pumped Up Kicks<br>
11. Don't Stop (Color on the Walls)<br>
12. The Truth <br>
<br>
Lineage: Redbull.TV webstream (720p) -&gt; downloaded .ts segments (batch script) -&gt; TSSplitter (join)<br>
<div class="ToggleTriggerAnchor bbCodeSpoilerContainer">
<button type="button" class="button bbCodeSpoilerButton ToggleTrigger Tooltip JsOnly" data-target="> .SpoilerTarget"><span>Spoiler</span></button>
<div class="SpoilerTarget bbCodeSpoilerText">Mediainfo:<br>
<br>
General<br>
ID : 1 (0x1)<br>
Complete name : Foster The People 2014-10-10 Austin City Limits [720p].ts<br>
Format : MPEG-TS<br>
File size : 1.54 GiB<br>
Duration : 59mn 1s<br>
Overall bit rate : 3 743 Kbps<br>
<br>
Video<br>
ID : 481 (0x1E1)<br>
Menu ID : 1 (0x1)<br>
Format : AVC<br>
Format/Info : Advanced Video Codec<br>
Format profile : Main@L3.1<br>
Format settings, CABAC : Yes<br>
Format settings, ReFrames : 4 frames<br>
Codec ID : 27<br>
Duration : 59mn 1s<br>
Bit rate mode : Constant<br>
Bit rate : 3 468 Kbps<br>
Width : 1 280 pixels<br>
Height : 720 pixels<br>
Display aspect ratio : 16:9<br>
Frame rate : 29.970 fps<br>
Color space : YUV<br>
Chroma subsampling : 4:2:0<br>
Bit depth : 8 bits<br>
Scan type : Progressive<br>
Bits/(Pixel*Frame) : 0.126<br>
Stream size : 1.43 GiB (93%)<br>
<br>
Audio<br>
ID : 482 (0x1E2)<br>
Menu ID : 1 (0x1)<br>
Format : AAC<br>
Format/Info : Advanced Audio Codec<br>
Format version : Version 4<br>
Format profile : LC<br>
Muxing mode : ADTS<br>
Codec ID : 15<br>
Duration : 59mn 1s<br>
Bit rate mode : Constant / Variable / Variable<br>
Bit rate : 86.7 Kbps<br>
Minimum bit rate : 6 375 bps / 6 375 bps<br>
Maximum bit rate : 120 Kbps / 120 Kbps<br>
Channel(s) : 2 channels<br>
Channel positions : Front: L R<br>
Sampling rate : 44.1 KHz<br>
Compression mode : Lossy<br>
Stream size : 36.6 MiB (2%)</div>
</div><br>
<div class="bbCodeBlock bbCodeVfcHH HiddenContent">
<div class="attribution type">Hidden Content:</div>
<blockquote>You must reply before you can see the hidden data contained here.</blockquote>
</div>
<div class="messageTextEndMarker">&nbsp;</div>
</blockquote>
</article>]]></description>
                <author><![CDATA[Nero]]></author>
                </item>

                </channel></rss>